# xmcd
#
# Track frame offsets:
#	150
#	17443
#	37889
#	56564
#	85734
#	120870
#	135557
#	160890
#	182596
#	208213
#	228736
#	250333
#	278859
#
# Disc length: 4096 seconds
#
# Revision: 1
# Processed by: cddbd v1.5PL3 Copyright (c) Steve Scherf et al.
# Submitted via: CDmax 2.0
#
DISCID=a70ffe0d
DTITLE=Jorma Kaukonen and Blue Country - Live at Poor David's Pub, Dallas, T
DTITLE=X - 02.08.2003 - D2
DYEAR=2003
DGENRE=Blues
TTITLE0=I'm Free From The Chain Gang Now
TTITLE1=Another Man Done Gone >
TTITLE2=Keep Your Lamps Trimmed and Burning
TTITLE3=Hesitation Blues
TTITLE4=Uncle Sam Blues
TTITLE5=Embryonic Journey
TTITLE6=Red River Blues
TTITLE7=Blues Stay Away From Me
TTITLE8=Genesis
TTITLE9=I Am The Light Of This World
TTITLE10=What Are They Doing In Heaven Today?
TTITLE11=Just Because
TTITLE12=San Francisco Bay Blues
EXTD=Jorma Kaukonen's Blue Country Heart\nFebruary 8, 2003\nPoor David's Pub\
EXTD=nDallas, TX\n\nSource: dfc/din AKG481 > Oade m148 > Apogee AD500e (apro
EXTD=x 10ft from stage]\nTransfer: Conner CTD8000 > DAT2WAV > WaveLab (resamp
EXTD=le to 44.1khz) > CDWav (tracks]\n\nTaped and Converted by: Mitchell Hibb
EXTD=s\n\nI:\nBlue Railroad Train, Re-Enlistment Blues, Death Don't Have No M
EXTD=ercy, Do Not Go Gentle, Bread Line Blues, Waitin' For A Train, Let You K
EXTD=now Before I Leave, Living In The Moment, Good Shepard, Tomcat Blues\n\n
EXTD=II:\nBig River Blues, I'm Free From The Chain Gang Now, Another Man Don
EXTD=e Gone > Keep Your Lamps Trimmed And Burning, Hesitation Blues, Uncle Sa
EXTD=m Blues, Embryonic Journey, Red River Blues, Blues Stay Away From Me, Ge
EXTD=nesis, I Am The Light Of The World, What Are They Doing In Heaven Today
EXTD=, Just Because\n\nE:\nSan Francisco Bay Blues\n\n\nNotes: The first son
EXTD=g of the second set is on the end of the 1st disc in order to fit the sh
EXTD=ow on 2 discs.  It just didn't seem necessary to split the second set in
EXTD=to 2 discs over 1 song.
EXTT0=
EXTT1=
EXTT2=
EXTT3=
EXTT4=
EXTT5=
EXTT6=
EXTT7=
EXTT8=
EXTT9=
EXTT10=
EXTT11=
EXTT12=
PLAYORDER=
